<?xml version="1.0" encoding="UTF-8"?>
<svg version="1.1" viewBox="0 0 415.75 664.28" xmlns="http://www.w3.org/2000/svg" xmlns:xlink="http://www.w3.org/1999/xlink">
 <defs>
  <filter id="ab" color-interpolation-filters="sRGB">
   <feGaussianBlur stdDeviation="1.0417198"/>
  </filter>
  <linearGradient id="z">
   <stop stop-color="#d8d8d8" offset="0"/>
   <stop stop-color="#4c4c4c" offset="1"/>
  </linearGradient>
  <linearGradient id="ak" x1="401" x2="401" y1="639.15" y2="694.96" gradientUnits="userSpaceOnUse">
   <stop offset="0"/>
   <stop stop-color="#a1a1a1" offset=".80684"/>
   <stop stop-color="#d3d3d3" stop-opacity="0" offset="1"/>
  </linearGradient>
  <linearGradient id="aa" x1="623.3" x2="647.72" y1="652.37" y2="325.75" gradientUnits="userSpaceOnUse">
   <stop stop-color="#252525" offset="0"/>
   <stop stop-color="#7e7e7e" offset="1"/>
  </linearGradient>
  <linearGradient id="al" x1="623.3" x2="623.3" y1="326.65" y2="652.37" gradientUnits="userSpaceOnUse">
   <stop stop-color="#dddcd5" offset="0"/>
   <stop stop-color="#dddcd5" stop-opacity="0" offset="1"/>
  </linearGradient>
  <linearGradient id="am" x1="398" x2="397.84" y1="840.8" y2="960.96" gradientUnits="userSpaceOnUse">
   <stop stop-color="#0d0d0d" offset="0"/>
   <stop stop-color="#0d0d0d" stop-opacity="0" offset="1"/>
  </linearGradient>
  <linearGradient id="an" x1="296.32" x2="469.73" y1="530.34" y2="254.13" gradientUnits="userSpaceOnUse">
   <stop stop-color="#d4aa00" offset="0"/>
   <stop stop-color="#d4aa00" stop-opacity="0" offset="1"/>
  </linearGradient>
  <linearGradient id="ao" x1="177.31" x2="426.76" y1="446.27" y2="446.27" gradientUnits="userSpaceOnUse">
   <stop stop-color="#626262" offset="0"/>
   <stop stop-color="#626262" stop-opacity="0" offset="1"/>
  </linearGradient>
  <linearGradient id="ap" x1="603.36" x2="601.24" y1="782.76" y2="921.13" gradientUnits="userSpaceOnUse">
   <stop stop-color="#3f3f3f" offset="0"/>
   <stop stop-opacity="0" offset="1"/>
  </linearGradient>
  <linearGradient id="aq" x1="618.7" x2="618.7" y1="598.28" y2="625.58" gradientUnits="userSpaceOnUse">
   <stop stop-color="#dddcd5" offset="0"/>
   <stop stop-color="#dddcd5" stop-opacity="0" offset="1"/>
  </linearGradient>
  <linearGradient id="ar" x1="659.49" x2="608.67" y1="546.99" y2="846.58" gradientUnits="userSpaceOnUse">
   <stop stop-color="#626262" offset="0"/>
   <stop stop-color="#626262" stop-opacity="0" offset="1"/>
  </linearGradient>
  <radialGradient id="a" cx="611.3" cy="492.84" r="5.3208" gradientTransform="matrix(.46371 -1.062 1.067 .46586 -201.28 912.34)" gradientUnits="userSpaceOnUse">
   <stop stop-color="#48463a" offset="0"/>
   <stop stop-color="#bdbbad" offset="1"/>
  </radialGradient>
  <radialGradient id="c" cx="607.35" cy="489.46" r="3.7289" gradientTransform="matrix(.24051 1.2276 -1.0297 .17731 965.57 -344.26)" gradientUnits="userSpaceOnUse">
   <stop stop-color="#d8d8d8" offset="0"/>
   <stop stop-color="#4c4c4c" offset="1"/>
  </radialGradient>
  <radialGradient id="au" cx="607.35" cy="489.46" r="3.7289" gradientTransform="matrix(.24051 1.2276 -1.0297 .17731 965.57 -344.26)" gradientUnits="userSpaceOnUse">
   <stop stop-color="#d8d8d8" offset="0"/>
   <stop stop-color="#2b2b2b" offset="1"/>
  </radialGradient>
  <radialGradient id="b" cx="607.35" cy="489.46" r="3.7289" gradientTransform="matrix(.24051 1.2276 -1.0297 .17731 965.57 -344.26)" gradientUnits="userSpaceOnUse" xlink:href="#z"/>
  <linearGradient id="as" x1="623.3" x2="623.3" y1="326.65" y2="652.37" gradientUnits="userSpaceOnUse" xlink:href="#z"/>
  <linearGradient id="at" x1="387.55" x2="384.83" y1="209.89" y2="188.3" gradientUnits="userSpaceOnUse">
   <stop stop-color="#626262" offset="0"/>
   <stop stop-color="#c9c9c9" offset="1"/>
  </linearGradient>
  <filter id="ac" x="-.070453" y="-.4044" width="1.1409" height="1.8088" color-interpolation-filters="sRGB">
   <feGaussianBlur stdDeviation="9.3083992"/>
  </filter>
  <linearGradient id="af" x1="373.1" x2="401.54" y1="190.5" y2="220.61" gradientUnits="userSpaceOnUse">
   <stop stop-color="#393939" offset="0"/>
   <stop stop-color="#393939" stop-opacity="0" offset="1"/>
  </linearGradient>
  <linearGradient id="ag" x1="379.49" x2="378.32" y1="225.12" y2="125.7" gradientTransform="translate(9.082 -2.3357)" gradientUnits="userSpaceOnUse">
   <stop offset="0"/>
   <stop stop-color="#7e7e7e" offset="1"/>
  </linearGradient>
  <linearGradient id="ah" x1="364.51" x2="364.51" y1="88.383" y2="733.71" gradientUnits="userSpaceOnUse">
   <stop stop-color="#808080" offset="0"/>
   <stop stop-color="#dbdbdb" stop-opacity=".93725" offset=".049603"/>
   <stop stop-color="#808080" stop-opacity=".87451" offset=".125"/>
   <stop stop-color="#808080" stop-opacity=".74902" offset=".25"/>
   <stop stop-color="#808080" stop-opacity=".49804" offset=".5"/>
   <stop stop-color="#808080" stop-opacity="0" offset="1"/>
  </linearGradient>
  <filter id="ad" color-interpolation-filters="sRGB">
   <feGaussianBlur stdDeviation="2.4707304"/>
  </filter>
  <linearGradient id="ai" x1="401" x2="401" y1="639.15" y2="714.49" gradientUnits="userSpaceOnUse">
   <stop offset="0"/>
   <stop stop-color="#a1a1a1" offset=".88979"/>
   <stop stop-color="#d3d3d3" stop-opacity="0" offset="1"/>
  </linearGradient>
  <filter id="ae" x="-.42" y="-.42" width="1.84" height="1.84">
   <feGaussianBlur stdDeviation="1.5063289"/>
  </filter>
  <linearGradient id="aj" x1="68.07" x2="69.842" y1="517.67" y2="525.67" gradientUnits="userSpaceOnUse">
   <stop stop-color="#0f0" offset="0"/>
   <stop stop-color="#005300" offset="1"/>
  </linearGradient>
 </defs>
 <g transform="translate(-173.38 -76.123)">
  <path d="m221.5 80.781c-26.634 0-48.062 17.666-48.062 39.625v575.16c0 21.959 21.429 39.625 48.062 39.625h319.5c26.634 0 48.062-17.666 48.062-39.625v-575.16c0-21.959-21.429-39.625-48.062-39.625h-319.5z" color="#000000" fill="#4d4d4d" stroke="#e7e7e7" stroke-linecap="round" stroke-linejoin="round" stroke-width=".036377"/>
  <rect transform="matrix(1.0699 0 0 1 -26.649 0)" x="213.31" y="82.052" width="335.88" height="652.42" rx="5" ry="5.1981" color="#000000" fill="url(#ah)" filter="url(#ad)" opacity=".56272"/>
  <rect x="330.76" y="154.32" width="100.98" height="100.98" rx="5" ry="5" color="#000000" fill="url(#ag)" opacity=".70251"/>
  <g transform="translate(.99496)">
   <path transform="matrix(1.0741 0 0 1.0741 -292.46 -83.911)" d="m768.73 511.93c0 78.663-63.769 142.43-142.43 142.43-78.663 0-142.43-63.769-142.43-142.43 0-78.663 63.769-142.43 142.43-142.43 78.663 0 142.43 63.769 142.43 142.43z" color="#000000" fill="url(#aa)" stroke="url(#al)" stroke-linecap="round" stroke-linejoin="round" stroke-width="2.793"/>
   <path transform="matrix(2.4381 0 0 2.4381 -590.12 -1708.2)" d="m452.55 891.75c0 30.126-24.422 54.548-54.548 54.548s-54.548-24.422-54.548-54.548 24.422-54.548 54.548-54.548 54.548 24.422 54.548 54.548z" color="#000000" fill="url(#am)" stroke="#000" stroke-linecap="round" stroke-linejoin="round" stroke-width=".48157"/>
   <path transform="matrix(.8571 0 0 .8571 121.38 83.459)" d="m424.26 446.27c0 67.505-54.724 122.23-122.23 122.23-67.505 0-122.23-54.724-122.23-122.23 0-67.505 54.724-122.23 122.23-122.23 67.505 0 122.23 54.724 122.23 122.23z" color="#000000" fill="url(#an)" stroke="url(#ao)" stroke-linecap="round" stroke-linejoin="round" stroke-width="5.0006"/>
   <g transform="translate(-229.88 -168.7)">
    <path transform="matrix(.75368 0 0 .75368 153.34 -8.4948)" d="m674.78 853.36c0 37.937-30.754 68.69-68.69 68.69-37.937 0-68.69-30.754-68.69-68.69 0-37.937 30.754-68.69 68.69-68.69 37.937 0 68.69 30.754 68.69 68.69z" color="#000000" fill="#212121" stroke="url(#ap)" stroke-width="2.6537"/>
    <path transform="matrix(1.3632 0 0 1.3755 -230.68 -227.9)" d="m642.46 612.95c0 8.6473-11.646 15.657-26.011 15.657-14.366 0-26.011-7.01-26.011-15.657 0-8.6473 11.646-15.657 26.011-15.657 14.366 0 26.011 7.01 26.011 15.657z" color="#000000" fill="url(#aq)" filter="url(#ab)"/>
   </g>
   <path transform="translate(-271.33 -213.24)" d="m786.66 679.2c0 74.596-60.472 135.07-135.07 135.07-74.596 0-135.07-60.472-135.07-135.07 0-74.596 60.472-135.07 135.07-135.07 74.596 0 135.07 60.472 135.07 135.07z" color="#000000" fill="none" stroke="url(#ar)" stroke-linecap="round" stroke-linejoin="round" stroke-opacity=".79608" stroke-width="2"/>
   <path transform="matrix(.83482 0 0 .86159 -128.66 188.53)" d="m612.94 491.62c0 3.1173-2.3822 5.6444-5.3208 5.6444s-5.3208-2.5271-5.3208-5.6444 2.3822-5.6444 5.3208-5.6444 5.3208 2.5271 5.3208 5.6444z" color="#000000" fill="url(#a)"/>
   <path transform="matrix(1 0 0 1.0667 -229.64 89.579)" d="m611.95 489.09c0 2.0213-1.6695 3.6598-3.7289 3.6598s-3.7289-1.6386-3.7289-3.6598c0-2.0213 1.6695-3.6598 3.7289-3.6598s3.7289 1.6386 3.7289 3.6598z" color="#000000" fill="url(#c)"/>
   <g transform="translate(17.482 50.669)" fill="none" stroke="#000" stroke-linecap="round" stroke-width="1px">
    <path d="m359.87 558.57 2.5128 3.9155"/>
    <path d="m363.02 559.18-3.7922 2.6954"/>
   </g>
   <path d="m378.5 611.91 0.8789 1.3794" fill="none" stroke="#e7e7e7" stroke-linecap="round" stroke-width=".05"/>
   <path d="m377.83 609.03 0.8789 1.3794" fill="none" stroke="#e7e7e7" stroke-linecap="round" stroke-width=".05"/>
   <path transform="matrix(.83482 0 0 .86159 -4.4049 117.51)" d="m612.94 491.62c0 3.1173-2.3822 5.6444-5.3208 5.6444s-5.3208-2.5271-5.3208-5.6444 2.3822-5.6444 5.3208-5.6444 5.3208 2.5271 5.3208 5.6444z" color="#000000" fill="url(#a)"/>
   <path transform="matrix(1 0 0 1.0667 -105.38 18.56)" d="m611.95 489.09c0 2.0213-1.6695 3.6598-3.7289 3.6598s-3.7289-1.6386-3.7289-3.6598c0-2.0213 1.6695-3.6598 3.7289-3.6598s3.7289 1.6386 3.7289 3.6598z" color="#000000" fill="url(#au)"/>
   <g transform="matrix(.78692 .61705 -.61705 .78692 564.57 -123.75)" fill="none" stroke="#000" stroke-linecap="round" stroke-width="1px">
    <path d="m359.87 558.57 2.5128 3.9155"/>
    <path d="m363.02 559.18-3.7922 2.6954"/>
   </g>
   <path d="m502.75 540.89 0.8789 1.3794" fill="none" stroke="#e7e7e7" stroke-linecap="round" stroke-width=".05"/>
   <path d="m502.09 538.01 0.8789 1.3794" fill="none" stroke="#e7e7e7" stroke-linecap="round" stroke-width=".05"/>
   <path transform="matrix(.83482 0 0 .86159 -3.1498 -30.162)" d="m612.94 491.62c0 3.1173-2.3822 5.6444-5.3208 5.6444s-5.3208-2.5271-5.3208-5.6444 2.3822-5.6444 5.3208-5.6444 5.3208 2.5271 5.3208 5.6444z" color="#000000" fill="url(#a)"/>
   <path transform="matrix(1 0 0 1.0667 -104.12 -129.11)" d="m611.95 489.09c0 2.0213-1.6695 3.6598-3.7289 3.6598s-3.7289-1.6386-3.7289-3.6598c0-2.0213 1.6695-3.6598 3.7289-3.6598s3.7289 1.6386 3.7289 3.6598z" color="#000000" fill="url(#b)"/>
   <g transform="translate(143 -168.02)" fill="none" stroke="#000" stroke-linecap="round" stroke-width="1px">
    <path d="m359.87 558.57 2.5128 3.9155"/>
    <path d="m363.02 559.18-3.7922 2.6954"/>
   </g>
   <path d="m504.01 393.22 0.8789 1.3794" fill="none" stroke="#e7e7e7" stroke-linecap="round" stroke-width=".05"/>
   <path d="m503.34 390.34 0.8789 1.3794" fill="none" stroke="#e7e7e7" stroke-linecap="round" stroke-width=".05"/>
   <path transform="matrix(.83482 0 0 .86159 -251.52 -30.245)" d="m612.94 491.62c0 3.1173-2.3822 5.6444-5.3208 5.6444s-5.3208-2.5271-5.3208-5.6444 2.3822-5.6444 5.3208-5.6444 5.3208 2.5271 5.3208 5.6444z" color="#000000" fill="url(#a)"/>
   <path transform="matrix(1 0 0 1.0667 -352.5 -129.19)" d="m611.95 489.09c0 2.0213-1.6695 3.6598-3.7289 3.6598s-3.7289-1.6386-3.7289-3.6598c0-2.0213 1.6695-3.6598 3.7289-3.6598s3.7289 1.6386 3.7289 3.6598z" color="#000000" fill="url(#c)"/>
   <g transform="matrix(.66706 .74501 -.74501 .66706 432.45 -250.52)" fill="none" stroke="#000" stroke-linecap="round" stroke-width="1px">
    <path d="m359.87 558.57 2.5128 3.9155"/>
    <path d="m363.02 559.18-3.7922 2.6954"/>
   </g>
   <path d="m255.63 393.13 0.8789 1.3794" fill="none" stroke="#e7e7e7" stroke-linecap="round" stroke-width=".05"/>
   <path d="m254.97 390.26 0.8789 1.3794" fill="none" stroke="#e7e7e7" stroke-linecap="round" stroke-width=".05"/>
   <path transform="matrix(.83482 0 0 .86159 -250.5 117.44)" d="m612.94 491.62c0 3.1173-2.3822 5.6444-5.3208 5.6444s-5.3208-2.5271-5.3208-5.6444 2.3822-5.6444 5.3208-5.6444 5.3208 2.5271 5.3208 5.6444z" color="#000000" fill="url(#a)"/>
   <path transform="matrix(1 0 0 1.0667 -351.48 18.489)" d="m611.95 489.09c0 2.0213-1.6695 3.6598-3.7289 3.6598s-3.7289-1.6386-3.7289-3.6598c0-2.0213 1.6695-3.6598 3.7289-3.6598s3.7289 1.6386 3.7289 3.6598z" color="#000000" fill="url(#c)"/>
   <g transform="translate(-104.36 -20.421)" fill="none" stroke="#000" stroke-linecap="round" stroke-width="1px">
    <path d="m359.87 558.57 2.5128 3.9155"/>
    <path d="m363.02 559.18-3.7922 2.6954"/>
   </g>
   <path d="m256.66 540.82 0.8789 1.3794" fill="none" stroke="#e7e7e7" stroke-linecap="round" stroke-width=".05"/>
   <path d="m255.99 537.94 0.8789 1.3794" fill="none" stroke="#e7e7e7" stroke-linecap="round" stroke-width=".05"/>
  </g>
  <rect x="222.08" y="639.15" width="317.09" height="55.243" rx="25" ry="25" color="#000000" fill="url(#ak)" stroke="#4a4a4a" stroke-linecap="round" stroke-linejoin="round" stroke-width="3"/>
  <path transform="matrix(.83482 0 0 .86159 -126.75 -101.56)" d="m612.94 491.62c0 3.1173-2.3822 5.6444-5.3208 5.6444s-5.3208-2.5271-5.3208-5.6444 2.3822-5.6444 5.3208-5.6444 5.3208 2.5271 5.3208 5.6444z" color="#000000" fill="url(#a)"/>
  <path transform="matrix(1 0 0 1.0667 -227.72 -200.51)" d="m611.95 489.09c0 2.0213-1.6695 3.6598-3.7289 3.6598s-3.7289-1.6386-3.7289-3.6598c0-2.0213 1.6695-3.6598 3.7289-3.6598s3.7289 1.6386 3.7289 3.6598z" color="#000000" fill="url(#c)"/>
  <g transform="translate(19.398 -239.42)" fill="none" stroke="#000" stroke-linecap="round" stroke-width="1px">
   <path d="m359.87 558.57 2.5128 3.9155"/>
   <path d="m363.02 559.18-3.7922 2.6954"/>
  </g>
  <path d="m380.41 321.82 0.8789 1.3794" fill="none" stroke="#e7e7e7" stroke-linecap="round" stroke-width=".05"/>
  <path d="m379.75 318.95 0.8789 1.3794" fill="none" stroke="#e7e7e7" stroke-linecap="round" stroke-width=".05"/>
  <path transform="matrix(.26073 0 0 .26073 217.96 71.337)" d="m768.73 511.93c0 78.663-63.769 142.43-142.43 142.43-78.663 0-142.43-63.769-142.43-142.43 0-78.663 63.769-142.43 142.43-142.43 78.663 0 142.43 63.769 142.43 142.43z" color="#000000" fill="url(#aa)" stroke="url(#as)" stroke-linecap="round" stroke-linejoin="round" stroke-width="7.6708"/>
  <path transform="translate(-2.3437 .49637)" d="m402.15 204.32c0 10.247-8.3072 18.555-18.555 18.555-10.247 0-18.555-8.3072-18.555-18.555 0-10.247 8.3072-18.555 18.555-18.555 10.247 0 18.555 8.3072 18.555 18.555z" color="#000000" fill="url(#at)" stroke="url(#af)" stroke-linecap="round" stroke-linejoin="round"/>
  <rect x="222.08" y="639.15" width="317.09" height="55.243" rx="25" ry="25" color="#000000" fill="url(#ai)" filter="url(#ac)" opacity=".70251" stroke="#4a4a4a" stroke-linecap="round" stroke-linejoin="round" stroke-width="3"/>
  <g transform="translate(2.1484 3.6047)">
   <path transform="matrix(.83482 0 0 .86159 -86.853 -182.73)" d="m612.94 491.62c0 3.1173-2.3822 5.6444-5.3208 5.6444s-5.3208-2.5271-5.3208-5.6444 2.3822-5.6444 5.3208-5.6444 5.3208 2.5271 5.3208 5.6444z" color="#000000" fill="url(#a)"/>
   <path transform="matrix(1 0 0 1.0667 -187.83 -281.68)" d="m611.95 489.09c0 2.0213-1.6695 3.6598-3.7289 3.6598s-3.7289-1.6386-3.7289-3.6598c0-2.0213 1.6695-3.6598 3.7289-3.6598s3.7289 1.6386 3.7289 3.6598z" color="#000000" fill="url(#b)"/>
   <g transform="translate(59.292 -320.59)" fill="none" stroke="#000" stroke-linecap="round" stroke-width="1px">
    <path d="m359.87 558.57 2.5128 3.9155"/>
    <path d="m363.02 559.18-3.7922 2.6954"/>
   </g>
  </g>
  <g transform="translate(-.97656 -1.3672)">
   <path transform="matrix(.83482 0 0 .86159 -165.57 -177.76)" d="m612.94 491.62c0 3.1173-2.3822 5.6444-5.3208 5.6444s-5.3208-2.5271-5.3208-5.6444 2.3822-5.6444 5.3208-5.6444 5.3208 2.5271 5.3208 5.6444z" color="#000000" fill="url(#a)"/>
   <path transform="matrix(1 0 0 1.0667 -266.55 -276.71)" d="m611.95 489.09c0 2.0213-1.6695 3.6598-3.7289 3.6598s-3.7289-1.6386-3.7289-3.6598c0-2.0213 1.6695-3.6598 3.7289-3.6598s3.7289 1.6386 3.7289 3.6598z" color="#000000" fill="url(#b)"/>
   <g transform="translate(-19.448 -315.62)" fill="none" stroke="#000" stroke-linecap="round" stroke-width="1px">
    <path d="m359.87 558.57 2.5128 3.9155"/>
    <path d="m363.02 559.18-3.7922 2.6954"/>
   </g>
  </g>
  <g transform="translate(2.1484 -76.395)">
   <path transform="matrix(.83482 0 0 .86159 -86.853 -182.73)" d="m612.94 491.62c0 3.1173-2.3822 5.6444-5.3208 5.6444s-5.3208-2.5271-5.3208-5.6444 2.3822-5.6444 5.3208-5.6444 5.3208 2.5271 5.3208 5.6444z" color="#000000" fill="url(#a)"/>
   <path transform="matrix(1 0 0 1.0667 -187.83 -281.68)" d="m611.95 489.09c0 2.0213-1.6695 3.6598-3.7289 3.6598s-3.7289-1.6386-3.7289-3.6598c0-2.0213 1.6695-3.6598 3.7289-3.6598s3.7289 1.6386 3.7289 3.6598z" color="#000000" fill="url(#b)"/>
   <g transform="translate(59.292 -320.59)" fill="none" stroke="#000" stroke-linecap="round" stroke-width="1px">
    <path d="m359.87 558.57 2.5128 3.9155"/>
    <path d="m363.02 559.18-3.7922 2.6954"/>
   </g>
  </g>
  <g transform="translate(-.97656 -81.367)">
   <path transform="matrix(.83482 0 0 .86159 -165.57 -177.76)" d="m612.94 491.62c0 3.1173-2.3822 5.6444-5.3208 5.6444s-5.3208-2.5271-5.3208-5.6444 2.3822-5.6444 5.3208-5.6444 5.3208 2.5271 5.3208 5.6444z" color="#000000" fill="url(#a)"/>
   <path transform="matrix(1 0 0 1.0667 -266.55 -276.71)" d="m611.95 489.09c0 2.0213-1.6695 3.6598-3.7289 3.6598s-3.7289-1.6386-3.7289-3.6598c0-2.0213 1.6695-3.6598 3.7289-3.6598s3.7289 1.6386 3.7289 3.6598z" color="#000000" fill="url(#b)"/>
   <g transform="translate(-19.448 -315.62)" fill="none" stroke="#000" stroke-linecap="round" stroke-width="1px">
    <path d="m359.87 558.57 2.5128 3.9155"/>
    <path d="m363.02 559.18-3.7922 2.6954"/>
   </g>
  </g>
  <g transform="translate(-3.3146 3.3146)" fill="url(#aj)">
   <path transform="matrix(1.3083 0 0 1.296 151.16 -74.328)" d="m73.357 521.38c0 2.3769-1.9269 4.3038-4.3038 4.3038s-4.3038-1.9269-4.3038-4.3038 1.9269-4.3038 4.3038-4.3038 4.3038 1.9269 4.3038 4.3038z" color="#000000" filter="url(#ae)" opacity=".78853"/>
   <path transform="translate(173.38 80.318)" d="m73.357 521.38c0 2.3769-1.9269 4.3038-4.3038 4.3038s-4.3038-1.9269-4.3038-4.3038 1.9269-4.3038 4.3038-4.3038 4.3038 1.9269 4.3038 4.3038z" color="#000000" opacity=".56272" stroke="#000" stroke-width=".5"/>
   <path transform="translate(173.38 80.123)" d="m73.357 521.38c0 2.3769-1.9269 4.3038-4.3038 4.3038s-4.3038-1.9269-4.3038-4.3038 1.9269-4.3038 4.3038-4.3038 4.3038 1.9269 4.3038 4.3038z" color="#000000" opacity=".56272"/>
  </g>
 </g>
</svg>
