<?xml version="1.0" encoding="iso-8859-1"?>
<!-- Uploaded to: SVG Repo, www.svgrepo.com, Generator: SVG Repo Mixer Tools -->
<svg height="800px" width="800px" version="1.1" id="Layer_1" xmlns="http://www.w3.org/2000/svg" xmlns:xlink="http://www.w3.org/1999/xlink" 
	 viewBox="0 0 510 510" xml:space="preserve">
<path style="fill:#7D8B95;" d="M6,254.4C6,311.6,26,367.6,62,412c0.8,0.8,0.4,2,0,2.8L30.8,446c-3.6,3.6-5.2,8-5.2,12.8
	s2,9.2,5.2,12.8c3.6,3.6,8,5.2,12.8,5.2s9.2-2,12.8-5.2l30.4-30.4c0.4-0.4,0.8-0.4,1.6-0.4c0.4,0,0.8,0,1.2,0.4
	c45.6,40.8,104.8,63.2,166,63.2c59.2,0,116.8-21.2,161.6-59.6c0.8-0.8,2-0.8,2.8,0l26.8,26.8c3.6,3.6,8,5.2,12.8,5.2s9.2-2,12.8-5.2
	c3.6-3.6,5.2-8,5.2-12.8s-2-9.2-5.2-12.8l-26.8-26.8c-0.8-0.8-0.8-2,0-2.8c38.4-45.2,59.6-102.4,59.6-161.6
	c0-61.2-22.4-120.4-63.2-166c-0.8-0.8-0.8-2,0-2.8l30.4-30.4c3.6-3.6,5.2-8,5.2-12.8s-2-9.2-5.2-12.8c-3.6-3.2-8-5.2-12.8-5.2
	s-9.2,2-12.8,5.2l-31.2,31.2c-0.8,0.8-2,0.8-2.8,0c-44.4-36-100.4-56-157.6-56C196,5.2,138.4,26.4,93.6,64.8c-0.8,0.8-2,0.8-2.8,0
	L56,30c-3.2-3.6-8-5.2-12.8-5.2s-9.2,2-12.8,5.2c-3.2,3.6-5.2,8-5.2,12.8s2,9.2,5.2,12.8l34.8,34.8c0.8,0.8,0.8,2,0,2.8
	C27.2,137.6,6,195.2,6,254.4z M43.6,464.4c-3.2,0-6-2.8-6-6s2.8-6,6-6s6,2.8,6,6S46.8,464.4,43.6,464.4z M459.6,452.4
	c3.2,0,6,2.8,6,6s-2.8,6-6,6s-6-2.8-6-6S456.4,452.4,459.6,452.4z M459.6,36.4c3.2,0,6,2.8,6,6s-2.8,6-6,6s-6-2.8-6-6
	S456.4,36.4,459.6,36.4z M43.6,48.4c-3.2,0-6-2.8-6-6s2.8-6,6-6s6,2.8,6,6S46.8,48.4,43.6,48.4z"/>
<path style="fill:#676767;" d="M255.6,472c120,0,217.6-97.6,217.6-217.6S375.6,36.8,255.6,36.8S38,134.4,38,254.4
	S135.6,472,255.6,472z M255.6,52.8c111.2,0,201.6,90.4,201.6,201.6S366.8,456,255.6,456S54,365.6,54,254.4S144.4,52.8,255.6,52.8z"
	/>
<path style="fill:#F4EFEF;" d="M255.6,452c108.8,0,197.6-88.4,197.6-197.6S364.8,56.8,255.6,56.8S58,145.2,58,254.4
	S146.8,452,255.6,452z M255.6,184.8c38.4,0,69.6,31.2,69.6,69.6S294,324,255.6,324S186,292.8,186,254.4S217.2,184.8,255.6,184.8z"/>
<path style="fill:#676767;" d="M255.6,320c36,0,65.6-29.2,65.6-65.6s-29.2-65.6-65.6-65.6S190,218,190,254.4S219.6,320,255.6,320z"
	/>
<g>
	<circle style="fill:#F4EFEF;" cx="43.6" cy="42.4" r="2"/>
	<circle style="fill:#F4EFEF;" cx="459.6" cy="42.4" r="2"/>
	<circle style="fill:#F4EFEF;" cx="43.6" cy="458.4" r="2"/>
	<circle style="fill:#F4EFEF;" cx="459.6" cy="458.4" r="2"/>
</g>
<path d="M255.6,478C132.4,478,32,377.6,32,254.4S132.4,30.8,255.6,30.8s223.6,100.4,223.6,223.6S378.8,478,255.6,478z M255.6,38.8
	C136.8,38.8,40,135.6,40,254.4C40,373.2,136.8,470,255.6,470s215.6-96.8,215.6-215.6C471.2,135.6,374.4,38.8,255.6,38.8z"/>
<path d="M255.6,458C143.2,458,52,366.8,52,254.4S143.2,50.8,255.6,50.8S459.2,142,459.2,254.4S368,458,255.6,458z M255.6,58.8
	C148,58.8,60,146.4,60,254.4S147.6,450,255.6,450s195.6-87.6,195.6-195.6C451.2,146.8,363.6,58.8,255.6,58.8z"/>
<path d="M255.6,326c-39.6,0-71.6-32-71.6-71.6s32-71.6,71.6-71.6s71.6,32,71.6,71.6S295.2,326,255.6,326z M255.6,190.8
	c-35.2,0-63.6,28.4-63.6,63.6s28.4,63.6,63.6,63.6c35.2,0,63.6-28.4,63.6-63.6S290.8,190.8,255.6,190.8z"/>
<path d="M255.6,510c-61.6,0-120.8-22-167.2-62.4l-28,28c-4.4,4.4-10.4,7.2-16.8,7.2s-12.4-2.4-16.8-7.2c-4.4-4.4-7.2-10.4-7.2-16.8
	s2.4-12.4,7.2-16.8l28.4-28.4C19.6,368.8,0,312.4,0,255.2C0,195.6,20.8,138,58.8,92.4l-32-32C22.4,56,19.6,50,19.6,43.6
	s2.4-12.4,7.2-16.8c4.4-4.4,10.4-7.2,16.8-7.2S56,22,60.4,26.8l32,32C138,20.8,196,0,255.2,0c57.2,0,113.6,19.6,158.4,55.2L442,26.8
	c4.4-4.4,10.4-7.2,16.8-7.2c6.4,0,12.4,2.4,16.8,7.2c4.4,4.4,7.2,10.4,7.2,16.8s-2.4,12.4-7.2,16.8l-28,28
	C488,134.8,510,194,510,255.6c0,59.6-20.8,117.2-58.8,162.8l24,24c4.4,4.4,7.2,10.4,7.2,16.8s-2.4,12.4-7.2,16.8
	c-4.4,4.4-10.4,7.2-16.8,7.2c-6.4,0-12.4-2.4-16.8-7.2l-24-24C372.8,489.2,315.2,510,255.6,510z M88.4,438c0.8,0,2,0.4,2.8,1.2
	c45.2,40.4,104,62.8,164.8,62.8c58.8,0,115.6-21.2,160.4-59.2c1.6-1.2,4-1.2,5.6,0.4l26.8,26.8c6,6,16.4,6,22.8,0
	c3.2-3.2,4.8-7.2,4.8-11.2s-1.6-8.4-4.8-11.2l-26.8-26.8c-1.6-1.6-1.6-4-0.4-5.6c38-44.8,59.2-101.6,59.2-160.4
	c0-60.8-22.4-119.2-62.8-164.8c-1.6-1.6-1.2-4,0-5.6L471.2,54c3.2-3.2,4.8-7.2,4.8-11.2s-1.6-8.4-4.8-11.2c-6-6-16.4-6-22.8,0
	l-31.2,31.2c-1.6,1.6-3.6,1.6-5.2,0.4c-44-36-99.6-55.6-156.4-55.6c-58.8,0-115.6,21.2-160.4,59.2c-1.6,1.2-4,1.2-5.6-0.4L54.8,31.6
	c-3.2-3.2-7.2-4.8-11.2-4.8s-8.4,1.6-11.2,4.8c-3.2,3.2-4.8,7.2-4.8,11.2s1.6,8.4,4.8,11.2l34.8,34.8c1.6,1.6,1.6,4,0.4,5.6
	C29.6,139.2,8.4,196,8.4,254.8C8.4,311.6,28,367.2,64,411.2c1.2,1.6,1.2,4-0.4,5.2l-31.2,31.2c-3.2,3.2-4.8,7.2-4.8,11.2
	s1.6,8.4,4.8,11.2c6,6,16.4,6,22.8,0l30.4-30.4C86,438.4,87.2,438,88.4,438z"/>
<circle cx="43.6" cy="42.4" r="8"/>
<circle cx="459.6" cy="42.4" r="8"/>
<circle cx="43.6" cy="458.4" r="8"/>
<circle cx="459.6" cy="458.4" r="8"/>
</svg>